<svg width="83" height="80" viewBox="0 0 83 80" fill="none" xmlns="http://www.w3.org/2000/svg">
<g id="Icon/Bold/Group_fill">
<ellipse id="Ellipse 46" cx="41.4999" cy="30.1252" rx="13.6667" ry="13.1667" fill="white"/>
<ellipse id="Ellipse 47" cx="58.5833" cy="30.125" rx="10.25" ry="9.875" fill="white"/>
<ellipse id="Ellipse 48" cx="24.4167" cy="30.125" rx="10.25" ry="9.875" fill="white"/>
<path id="Subtract" fill-rule="evenodd" clip-rule="evenodd" d="M60.5255 59.7498H71.1408C71.7339 59.7498 72.1899 59.2383 72.0895 58.6538C71.4577 54.974 68.6584 43.2915 58.5834 43.2915C55.5559 43.2915 53.1854 44.3464 51.3333 45.922C56.4847 49.1419 59.1483 54.7802 60.5255 59.7498Z" fill="white"/>
<path id="Subtract_2" fill-rule="evenodd" clip-rule="evenodd" d="M31.6667 45.922C29.8146 44.3464 27.4441 43.2915 24.4166 43.2915C14.3416 43.2915 11.5422 54.974 10.9104 58.6538C10.81 59.2383 11.266 59.7498 11.8591 59.7498H22.4744C23.8516 54.7801 26.5152 49.1419 31.6667 45.922Z" fill="white"/>
<path id="Rectangle 4160" d="M41.5001 46.5835C56.2686 46.5835 58.2698 61.3439 58.5409 65.3439C58.5783 65.895 58.1357 66.3335 57.5834 66.3335H25.4167C24.8645 66.3335 24.4219 65.895 24.4592 65.3439C24.7304 61.3439 26.7315 46.5835 41.5001 46.5835Z" fill="white"/>
</g>
</svg>
