<svg width="24" height="23" viewBox="0 0 24 23" fill="none" xmlns="http://www.w3.org/2000/svg">
<g id="Icon/Img">
<path id="Subtract" fill-rule="evenodd" clip-rule="evenodd" d="M3.67157 1.67187C2.5 2.84344 2.5 4.72906 2.5 8.5003V12.5003C2.5 16.2715 2.5 18.1572 3.67157 19.3287C4.84315 20.5003 6.72876 20.5003 10.5 20.5003H14.5C18.2712 20.5003 20.1569 20.5003 21.3284 19.3287C22.5 18.1572 22.5 16.2715 22.5 12.5003V12.5003V8.5003C22.5 5.66096 22.5 3.89048 22 2.68886V15.5003C21.0396 15.5003 20.1185 15.1188 19.4393 14.4396L18.6877 13.688C17.9664 12.9667 17.6057 12.606 17.1968 12.454C16.7473 12.287 16.2527 12.287 15.8032 12.454C15.3943 12.606 15.0336 12.9667 14.3123 13.688L14.1992 13.8011C13.6138 14.3865 13.3212 14.6791 13.0102 14.7337C12.7685 14.7761 12.5197 14.7282 12.311 14.5991C12.0425 14.4329 11.8795 14.0525 11.5534 13.2916L11.5 13.167C10.7504 11.4178 10.3755 10.5432 9.72167 10.2154C9.39249 10.0504 9.02413 9.97947 8.6572 10.0104C7.92836 10.0719 7.25554 10.7448 5.90989 12.0904L4 14.0003V1.3877C3.8844 1.4738 3.77519 1.56825 3.67157 1.67187Z" fill="#002D85"/>
<path id="Rectangle 1" d="M3.5 8.5C3.5 6.58611 3.50212 5.25129 3.63753 4.24416C3.76907 3.26579 4.00966 2.7477 4.37868 2.37868C4.7477 2.00966 5.26579 1.76907 6.24416 1.63753C7.25129 1.50212 8.58611 1.5 10.5 1.5H14.5C16.4139 1.5 17.7487 1.50212 18.7558 1.63753C19.7342 1.76907 20.2523 2.00966 20.6213 2.37868C20.9903 2.7477 21.2309 3.26579 21.3625 4.24416C21.4979 5.25129 21.5 6.58611 21.5 8.5V12.5C21.5 14.4139 21.4979 15.7487 21.3625 16.7558C21.2309 17.7342 20.9903 18.2523 20.6213 18.6213C20.2523 18.9903 19.7342 19.2309 18.7558 19.3625C17.7487 19.4979 16.4139 19.5 14.5 19.5H10.5C8.58611 19.5 7.25129 19.4979 6.24416 19.3625C5.26579 19.2309 4.7477 18.9903 4.37868 18.6213C4.00966 18.2523 3.76907 17.7342 3.63753 16.7558C3.50212 15.7487 3.5 14.4139 3.5 12.5V8.5Z" stroke="#002D85" stroke-width="2"/>
<circle id="Ellipse 46" cx="15.5" cy="7.5" r="2" fill="#002D85"/>
</g>
</svg>
