<svg width="22" height="20" viewBox="0 0 22 20" fill="none" xmlns="http://www.w3.org/2000/svg">
<g id="Iconly/Bold/Logout">
<g id="Logout">
<path id="Vector" d="M9.94955 0C12.5516 0 14.6737 1.99 14.6737 4.44V9.23H8.2753C7.81674 9.23 7.45416 9.57 7.45416 10C7.45416 10.42 7.81674 10.77 8.2753 10.77H14.6737V15.55C14.6737 18 12.5516 20 9.92822 20H4.73483C2.12214 20 0 18.01 0 15.56V4.45C0 1.99 2.13281 0 4.7455 0H9.94955ZM17.3362 6.5502C17.6506 6.2402 18.1642 6.2402 18.4786 6.5402L21.5391 9.4502C21.6964 9.6002 21.7802 9.7902 21.7802 10.0002C21.7802 10.2002 21.6964 10.4002 21.5391 10.5402L18.4786 13.4502C18.3214 13.6002 18.1118 13.6802 17.9126 13.6802C17.703 13.6802 17.4934 13.6002 17.3362 13.4502C17.0217 13.1502 17.0217 12.6602 17.3362 12.3602L19.0132 10.7702L14.6737 10.77V9.23L19.0132 9.2302L17.3362 7.6402C17.0217 7.3402 17.0217 6.8502 17.3362 6.5502Z" fill="#002D85"/>
</g>
</g>
</svg>
