<svg width="75" height="76" viewBox="0 0 75 76" fill="none" xmlns="http://www.w3.org/2000/svg">
<g id="icon/Bold/News">
<path id="Vector" d="M58.9286 15.9019V55.4108C58.928 55.7455 59.0527 56.0682 59.2782 56.3156C59.5037 56.5629 59.8136 56.7168 60.1469 56.7471C60.4802 56.7773 60.8127 56.6816 61.0791 56.4789C61.3454 56.2762 61.5261 55.9812 61.5858 55.6519L61.6072 55.4108V19.2501H64.9554C66.1318 19.2501 67.2652 19.6925 68.1306 20.4894C68.9959 21.2863 69.53 22.3794 69.6268 23.5519L69.6429 23.9376V56.0804C69.643 58.304 68.7923 60.4434 67.2652 62.0596C65.7381 63.6759 63.6504 64.6465 61.4304 64.7724L60.9375 64.7858H14.0625C11.839 64.7859 9.6996 63.9352 8.08335 62.4081C6.46709 60.881 5.49646 58.7933 5.37057 56.5733L5.35718 56.0804V15.9019C5.35722 14.7255 5.7996 13.5921 6.5965 12.7267C7.3934 11.8613 8.48655 11.3272 9.65896 11.2304L10.0447 11.2144H54.2411C55.4175 11.2144 56.5509 11.6568 57.4163 12.4537C58.2816 13.2506 58.8157 14.3437 58.9125 15.5161L58.9286 15.9019ZM26.1081 35.3322H19.4197C18.2433 35.3323 17.1099 35.7746 16.2445 36.5715C15.3792 37.3684 14.8451 38.4616 14.7483 39.634L14.7322 40.0197V46.7054C14.7322 47.8818 15.1746 49.0152 15.9715 49.8806C16.7684 50.746 17.8616 51.28 19.034 51.3769L19.4197 51.3929H26.1081C27.2849 51.3928 28.4186 50.9501 29.2841 50.1526C30.1495 49.3552 30.6833 48.2614 30.7795 47.0885L30.7929 46.7054V40.0197C30.7935 38.8428 30.3514 37.7088 29.5545 36.8429C28.7575 35.9769 27.664 35.4424 26.4911 35.3456L26.1081 35.3322ZM47.5447 47.3751H38.1697L37.8965 47.3938C37.4156 47.46 36.975 47.698 36.656 48.0638C36.3371 48.4297 36.1614 48.8986 36.1614 49.384C36.1614 49.8694 36.3371 50.3383 36.656 50.7042C36.975 51.07 37.4156 51.308 37.8965 51.3742L38.1697 51.3929H47.5447L47.8179 51.3742C48.2987 51.308 48.7394 51.07 49.0583 50.7042C49.3773 50.3383 49.553 49.8694 49.553 49.384C49.553 48.8986 49.3773 48.4297 49.0583 48.0638C48.7394 47.698 48.2987 47.46 47.8179 47.3938L47.5447 47.3751ZM19.4197 39.3501H26.1081C26.2586 39.3502 26.4047 39.401 26.5227 39.4943C26.6408 39.5876 26.724 39.718 26.759 39.8644L26.7777 40.0197V46.7054C26.7775 46.8563 26.7263 47.0027 26.6324 47.1208C26.5386 47.2389 26.4076 47.3219 26.2608 47.3563L26.1081 47.3751H19.4197C19.2688 47.3748 19.1225 47.3236 19.0043 47.2298C18.8862 47.136 18.8032 47.005 18.7688 46.8581L18.75 46.7054V40.0197C18.7497 39.8684 18.8006 39.7214 18.8945 39.6027C18.9883 39.484 19.1197 39.4006 19.267 39.3661L19.4197 39.3501ZM47.5447 35.3322H38.1697L37.8965 35.3483C37.4136 35.4123 36.9704 35.6495 36.6494 36.0159C36.3284 36.3822 36.1515 36.8527 36.1515 37.3398C36.1515 37.8269 36.3284 38.2974 36.6494 38.6637C36.9704 39.0301 37.4136 39.2673 37.8965 39.3313L38.1697 39.3501H47.5447L47.8179 39.3313C48.3008 39.2673 48.7439 39.0301 49.0649 38.6637C49.3859 38.2974 49.5629 37.8269 49.5629 37.3398C49.5629 36.8527 49.3859 36.3822 49.0649 36.0159C48.7439 35.6495 48.3008 35.4123 47.8179 35.3483L47.5447 35.3322ZM47.5447 23.2599H16.7411L16.4679 23.2786C15.9871 23.3448 15.5464 23.5828 15.2275 23.9487C14.9085 24.3145 14.7328 24.7835 14.7328 25.2688C14.7328 25.7542 14.9085 26.2231 15.2275 26.589C15.5464 26.9548 15.9871 27.1928 16.4679 27.259L16.7411 27.2777H47.5447L47.8179 27.259C48.2987 27.1928 48.7394 26.9548 49.0583 26.589C49.3773 26.2231 49.553 25.7542 49.553 25.2688C49.553 24.7835 49.3773 24.3145 49.0583 23.9487C48.7394 23.5828 48.2987 23.3448 47.8179 23.2786L47.5447 23.2599Z" fill="white"/>
</g>
</svg>
